HIERARCHY
ROOT hip
{
  OFFSET 0 0 0
  CHANNELS 6 Xposition Yposition Zposition Zrotation Yrotation Xrotation
  JOINT abdomen
  {
    OFFSET 0 20.6881 -0.73152
    CHANNELS 3 Zrotation Xrotation Yrotation
    JOINT chest
    {
      OFFSET 0 11.7043 -0.48768
      CHANNELS 3 Zrotation Xrotation Yrotation
      JOINT neck
      {
        OFFSET 0 22.1894 -2.19456
        CHANNELS 3 Zrotation Xrotation Yrotation
        JOINT head
        {
          OFFSET -0.24384 7.07133 1.2192
          CHANNELS 3 Zrotation Xrotation Yrotation
          JOINT leftEye
          {
            OFFSET 4.14528 8.04674 8.04672
            CHANNELS 3 Zrotation Xrotation Yrotation
            End Site
            {
              OFFSET 1 0 0
            }
          }
          JOINT rightEye
          {
            OFFSET -3.6576 8.04674 8.04672
            CHANNELS 3 Zrotation Xrotation Yrotation
            End Site
            {
              OFFSET 1 0 0
            }
          }
        }
      }
      JOINT rCollar
      {
        OFFSET -2.68224 19.2634 -4.8768
        CHANNELS 3 Zrotation Xrotation Yrotation
        JOINT rShldr
        {
          OFFSET -8.77824 -1.95073 1.46304
          CHANNELS 3 Zrotation Xrotation Yrotation
          JOINT rForeArm
          {
            OFFSET -28.1742 -1.7115 0.48768
            CHANNELS 3 Zrotation Xrotation Yrotation
            JOINT rHand
            {
              OFFSET -22.5879 0.773209 7.07136
              CHANNELS 3 Zrotation Xrotation Yrotation
              JOINT rThumb1
              {
                OFFSET -1.2192 -0.487915 3.41376
                CHANNELS 3 Zrotation Xrotation Yrotation
                JOINT rThumb2
                {
                  OFFSET -3.37035 -0.52449 3.41376
                  CHANNELS 3 Zrotation Xrotation Yrotation
                  End Site
                  {
                    OFFSET -1.78271 -1.18214 1.43049
                  }
                }
              }
              JOINT rIndex1
              {
                OFFSET -7.75947 0.938293 5.60832
                CHANNELS 3 Zrotation Xrotation Yrotation
                JOINT rIndex2
                {
                  OFFSET -2.54057 -0.884171 1.56538
                  CHANNELS 3 Zrotation Xrotation Yrotation
                  End Site
                  {
                    OFFSET -1.62519 -0.234802 1.16502
                  }
                }
              }
              JOINT rMid1
              {
                OFFSET -8.24714 1.18213 3.41376
                CHANNELS 3 Zrotation Xrotation Yrotation
                JOINT rMid2
                {
                  OFFSET -3.10165 -0.590103 1.0647
                  CHANNELS 3 Zrotation Xrotation Yrotation
                  End Site
                  {
                    OFFSET -2.48547 -0.328903 0.83742
                  }
                }
              }
              JOINT rRing1
              {
                OFFSET -8.82822 0.546677 1.51678
                CHANNELS 3 Zrotation Xrotation Yrotation
                JOINT rRing2
                {
                  OFFSET -2.60934 -0.819778 -0.0198488
                  CHANNELS 3 Zrotation Xrotation Yrotation
                  End Site
                  {
                    OFFSET -2.33842 -0.294052 0.168128
                  }
                }
              }
              JOINT rPinky1
              {
                OFFSET -8.27202 -0.0477905 -0.4584
                CHANNELS 3 Zrotation Xrotation Yrotation
                JOINT rPinky2
                {
                  OFFSET -1.82734 -0.647385 -0.700984
                  CHANNELS 3 Zrotation Xrotation Yrotation
                  End Site
                  {
                    OFFSET -1.69225 -0.51767 -0.607171
                  }
                }
              }
            }
          }
        }
      }
      JOINT lCollar
      {
        OFFSET 2.68224 19.2634 -4.8768
        CHANNELS 3 Zrotation Xrotation Yrotation
        JOINT lShldr
        {
          OFFSET 8.77824 -1.95073 1.46304
          CHANNELS 3 Zrotation Xrotation Yrotation
          JOINT lForeArm
          {
            OFFSET 28.1742 -1.7115 0.48768
            CHANNELS 3 Zrotation Xrotation Yrotation
            JOINT lHand
            {
              OFFSET 22.5879 0.773209 7.07136
              CHANNELS 3 Zrotation Xrotation Yrotation
              JOINT lThumb1
              {
                OFFSET 1.2192 -0.487915 3.41376
                CHANNELS 3 Zrotation Xrotation Yrotation
                JOINT lThumb2
                {
                  OFFSET 3.37035 -0.52449 3.41376
                  CHANNELS 3 Zrotation Xrotation Yrotation
                  End Site
                  {
                    OFFSET 1.78271 -1.18214 1.43049
                  }
                }
              }
              JOINT lIndex1
              {
                OFFSET 7.75947 0.938293 5.60832
                CHANNELS 3 Zrotation Xrotation Yrotation
                JOINT lIndex2
                {
                  OFFSET 2.54057 -0.884171 1.56538
                  CHANNELS 3 Zrotation Xrotation Yrotation
                  End Site
                  {
                    OFFSET 1.62519 -0.234802 1.16502
                  }
                }
              }
              JOINT lMid1
              {
                OFFSET 8.24714 1.18213 3.41376
                CHANNELS 3 Zrotation Xrotation Yrotation
                JOINT lMid2
                {
                  OFFSET 3.10165 -0.590103 1.0647
                  CHANNELS 3 Zrotation Xrotation Yrotation
                  End Site
                  {
                    OFFSET 2.48547 -0.328903 0.83742
                  }
                }
              }
              JOINT lRing1
              {
                OFFSET 8.82822 0.546677 1.51678
                CHANNELS 3 Zrotation Xrotation Yrotation
                JOINT lRing2
                {
                  OFFSET 2.60934 -0.819778 -0.0198488
                  CHANNELS 3 Zrotation Xrotation Yrotation
                  End Site
                  {
                    OFFSET 2.33842 -0.294052 0.168128
                  }
                }
              }
              JOINT lPinky1
              {
                OFFSET 8.27202 -0.0477905 -0.4584
                CHANNELS 3 Zrotation Xrotation Yrotation
                JOINT lPinky2
                {
                  OFFSET 1.82734 -0.647385 -0.700984
                  CHANNELS 3 Zrotation Xrotation Yrotation
                  End Site
                  {
                    OFFSET 1.69225 -0.51767 -0.607171
                  }
                }
              }
            }
          }
        }
      }
    }
  }
  JOINT rButtock
  {
    OFFSET -8.77824 4.35084 1.2192
    CHANNELS 3 Zrotation Xrotation Yrotation
    JOINT rThigh
    {
      OFFSET 0 -1.70687 -2.19456
      CHANNELS 3 Zrotation Xrotation Yrotation
      JOINT rShin
      {
        OFFSET 0 -36.8199 0.73152
        CHANNELS 3 Zrotation Xrotation Yrotation
        JOINT rFoot
        {
          OFFSET 0.73152 -45.1104 -5.12064
          CHANNELS 3 Zrotation Xrotation Yrotation
          End Site
          {
            OFFSET -1.1221 -3.69964 12.103
          }
        }
      }
    }
  }
  JOINT lButtock
  {
    OFFSET 8.77824 4.35084 1.2192
    CHANNELS 3 Zrotation Xrotation Yrotation
    JOINT lThigh
    {
      OFFSET 0 -1.70687 -2.19456
      CHANNELS 3 Zrotation Xrotation Yrotation
      JOINT lShin
      {
        OFFSET 0 -36.8199 0.73152
        CHANNELS 3 Zrotation Xrotation Yrotation
        JOINT lFoot
        {
          OFFSET -0.73152 -45.1104 -5.12064
          CHANNELS 3 Zrotation Xrotation Yrotation
          End Site
          {
            OFFSET 1.1221 -3.69964 12.103
          }
        }
      }
    }
  }
}
MOTION
Frames:	4
Frame Time:	0.00833333
21.1812 67.5726 64.1922 0.0 0.0 0.0 3.32102 0.00284074 0.0895581 0.915406 0.020598 0.158334 8.38798e-15 0.0 -3.97569e-16 2.52674e-14 3.18055e-15 -1.34335e-15 -0.0 0.0 0.0 -0.0 0.0 0.0 4.17336e-15 1.28123e-17 -9.93923e-17 9.2218e-14 9.75287e-16 -2.5842e-15 1.54495e-12 -4.36929e-13 -1.01778e-13 1.75945e-11 5.56945e-13 -7.09264e-13 4.15127e-11 2.52644e-13 -1.75885e-12 7.16814e-11 4.32555e-13 -3.05572e-12 4.15182e-11 2.54444e-13 -1.77475e-12 7.73091 5.47488 0.417314 4.15126e-11 2.53053e-13 -1.76203e-12 2.90554 0.965183 0.102902 4.1523e-11 2.52854e-13 -1.76362e-12 10.2786 0.731801 0.0259123 4.1513e-11 2.52457e-13 -1.76203e-12 2.22167 -0.733487 -0.20892 4.07648e-15 1.20358e-17 -3.97569e-16 8.63451e-14 1.06226e-15 -4.37326e-15 1.52483e-12 4.79667e-13 -6.67917e-14 1.75634e-11 -3.54209e-13 -7.4743e-13 4.14178e-11 2.62744e-13 -1.78111e-12 7.15343e-11 4.51639e-13 -3.05572e-12 4.14124e-11 2.63986e-13 -1.77475e-12 -7.73091 5.47488 -0.417314 4.14177e-11 2.63191e-13 -1.77475e-12 -2.90554 0.965183 -0.102902 4.14063e-11 2.62694e-13 -1.77157e-12 -10.2786 0.731801 -0.0259123 4.14188e-11 2.63191e-13 -1.77157e-12 -2.22167 -0.733487 0.20892 -2.03217e-16 0.0 -3.88251e-19 2.98119 -9.63219 -0.345828 0.00978528 11.8588 0.257041 -0.534189 -2.24128 0.0138707 2.03217e-16 0.0 3.88251e-19 2.06444 -1.93654 -0.0170037 0.00844699 -2.07867 0.0692868 0.457383 4.00041 -0.132275
35.306 81.8266 47.5721 2.0808 -53.2913 107.421 5.15836 -7.5548 2.44328 -7.25905 0.0409402 0.580855 0.356315 1.17758 0.551475 4.53873 10.379 -1.11769 -0.0 0.0 0.0 -0.0 0.0 0.0 1.59483e-13 -2.6886e-13 -1.37123e-13 -16.3326 -25.3541 8.73354 -3.94609 -1.74179 6.21785 0.0242214 -3.46075 -0.483199 3.9956e-10 -6.73808e-10 6.36847e-10 6.84773e-10 -1.14979e-09 1.09946e-09 3.99564e-10 -6.73808e-10 6.36835e-10 7.73091 5.47488 0.417314 3.99559e-10 -6.73809e-10 6.36844e-10 2.90554 0.965183 0.102902 3.99568e-10 -6.73809e-10 6.36845e-10 10.2786 0.731801 0.0259123 3.99558e-10 -6.73809e-10 6.36849e-10 2.22167 -0.733487 -0.20892 1.59377e-13 -2.68859e-13 -1.37418e-13 25.0116 -19.8799 -8.04199 4.09541 -1.83666 -6.42269 -0.00823835 -2.02325 0.28372 5.91188e-10 2.76993e-11 6.53504e-10 1.02136e-09 4.58189e-11 1.13054e-09 5.91184e-10 2.7701e-11 6.53513e-10 -7.73091 5.47488 -0.417314 5.91188e-10 2.77e-11 6.53507e-10 -2.90554 0.965183 -0.102902 5.91177e-10 2.76994e-11 6.53509e-10 -10.2786 0.731801 -0.0259123 5.91189e-10 2.76996e-11 6.53508e-10 -2.22167 -0.733487 0.20892 -2.03217e-16 0.0 -3.88251e-19 4.70627 -19.6331 0.078444 -0.108622 21.5103 0.29137 -0.530648 7.24576 -0.358859 2.03217e-16 0.0 3.88251e-19 1.4385 -14.1291 2.0297 0.00887367 11.9219 -0.110943 0.528931 11.0018 -0.700955
35.4736 81.6818 47.3466 1.9031 -53.3284 107.401 7.79972 -15.5302 5.07255 -15.903 0.0618628 1.02684 0.714512 2.42837 1.13628 9.79504 21.3328 -2.42325 -0.0 0.0 0.0 -0.0 0.0 0.0 3.34209e-13 -5.75975e-13 -2.93984e-13 -21.1961 -49.7832 25.6493 -7.71295 -3.51724 12.8152 -0.014263 -7.14458 -1.00359 8.74198e-10 -1.65738e-09 1.3724e-09 1.49865e-09 -2.83231e-09 2.3699e-09 8.74201e-10 -1.65738e-09 1.3724e-09 7.73091 5.47488 0.417314 8.74197e-10 -1.65738e-09 1.3724e-09 2.90554 0.965183 0.102902 8.74204e-10 -1.65738e-09 1.37241e-09 10.2786 0.731801 0.0259123 8.74195e-10 -1.65738e-09 1.37241e-09 2.22167 -0.733487 -0.20892 3.34093e-13 -5.75971e-13 -2.94273e-13 43.8714 -39.4485 -20.3175 7.9877 -3.70655 -13.2454 0.00489435 -4.1391 0.58163 1.18785e-09 1.45987e-10 1.41578e-09 2.05212e-09 2.48245e-10 2.44906e-09 1.18784e-09 1.45989e-10 1.4158e-09 -7.73091 5.47488 -0.417314 1.18785e-09 1.45988e-10 1.41578e-09 -2.90554 0.965183 -0.102902 1.18783e-09 1.45988e-10 1.41578e-09 -10.2786 0.731801 -0.0259123 1.18785e-09 1.45988e-10 1.41578e-09 -2.22167 -0.733487 0.20892 -2.03217e-16 0.0 -3.88251e-19 6.70215 -30.1774 0.566913 -0.251253 31.7554 0.343595 -0.38395 17.2815 -0.793081 2.03217e-16 0.0 3.88251e-19 1.82847 -26.9353 4.56475 0.114401 26.7613 -0.332557 0.762503 18.4217 -1.3373
35.6715 81.5193 47.13 1.9708 -53.3498 107.116 10.8218 -22.5076 7.67478 -23.6089 0.0816056 1.4259 1.00084 3.53144 1.65722 15.0031 31.0856 -3.85203 -0.0 0.0 0.0 -0.0 0.0 0.0 4.70104e-13 -8.06606e-13 -4.11171e-13 -0.513233 -63.1119 62.5434 -10.7228 -4.97969 18.7182 -0.104911 -10.3793 -1.47103 1.11565e-09 -2.02193e-09 1.91406e-09 1.91096e-09 -3.45023e-09 3.30448e-09 1.11566e-09 -2.02193e-09 1.91405e-09 7.73091 5.47488 0.417314 1.11565e-09 -2.02193e-09 1.91406e-09 2.90554 0.965183 0.102902 1.11566e-09 -2.02193e-09 1.91406e-09 10.2786 0.731801 0.0259123 1.11565e-09 -2.02193e-09 1.91407e-09 2.22167 -0.733487 -0.20892 4.69979e-13 -8.06601e-13 -4.11459e-13 49.3522 -53.1824 -40.0467 11.0725 -5.23359 -19.342 0.035684 -6.06914 0.855425 1.69073e-09 8.25725e-11 1.96407e-09 2.92102e-09 1.36553e-10 3.39774e-09 1.69073e-09 8.25749e-11 1.96409e-09 -7.73091 5.47488 -0.417314 1.69073e-09 8.25736e-11 1.96407e-09 -2.90554 0.965183 -0.102902 1.69072e-09 8.25729e-11 1.96407e-09 -10.2786 0.731801 -0.0259123 1.69073e-09 8.25725e-11 1.96407e-09 -2.22167 -0.733487 0.20892 -2.03217e-16 0.0 -3.88251e-19 8.70997 -39.6286 1.17319 -0.398385 40.813 0.409752 -0.118682 26.2151 -1.22134 2.03217e-16 0.0 3.88251e-19 3.41008 -38.2953 7.57555 0.334382 39.9216 -0.605192 1.12872 24.9936 -1.98639
